<?xml version="1.0" encoding="UTF-8"?>
<svg xmlns="http://www.w3.org/2000/svg" viewBox="0 0 1200 630" width="1200" height="630">
  <defs>
    <linearGradient id="g98262" x1="91.9335283972712%" y1="22.768048249248658%" x2="8.06647160272879%" y2="77.23195175075134%">
      <stop offset="0%" stop-color="#0D9488"/>
      <stop offset="100%" stop-color="#0F766E"/>
    </linearGradient>
  </defs>
  <rect width="1200" height="630" fill="url(#g98262)"/>
  <rect x="221.43483622930944" y="257.2618734650314" width="28" height="192.73812653496861" rx="3" fill="rgba(255,255,255,0.13819706842303275)"/><rect x="261.43483622930944" y="339.69193199649453" width="28" height="110.30806800350547" rx="3" fill="rgba(255,255,255,0.06256570586934686)"/><rect x="301.43483622930944" y="253.18785911425948" width="28" height="196.81214088574052" rx="3" fill="rgba(255,255,255,0.13791054479777815)"/><rect x="341.43483622930944" y="275.5759156867862" width="28" height="174.42408431321383" rx="3" fill="rgba(255,255,255,0.07723921224474907)"/><rect x="381.43483622930944" y="383.1934184860438" width="28" height="66.80658151395619" rx="3" fill="rgba(255,255,255,0.13663017615675926)"/><rect x="421.43483622930944" y="251.5418546833098" width="28" height="198.4581453166902" rx="3" fill="rgba(255,255,255,0.06585897509008645)"/><rect x="461.43483622930944" y="376.7378281895071" width="28" height="73.26217181049287" rx="3" fill="rgba(255,255,255,0.13354984886944293)"/><path d="M 600 438.2390491082333 L 650 425.0568073091563 L 700 399.19861027621664 L 750 372.65750175109133 L 800 339.1655068472028 L 850 320.43144548661076 L 900 293.1736158754211 L 950 267.042368206894 L 1000 229.3449691159185 L 1050 210.4447950818576 L 1100 174.44846776197664" fill="none" stroke="rgba(255,255,255,0.18)" stroke-width="2.5"/><text x="273.6219464801252" y="223.09796465560794" font-family="sans-serif" font-size="53.178989849984646" fill="rgba(255,255,255,0.0897530357260257)">€</text><text x="389.586583385244" y="148.85267447680235" font-family="sans-serif" font-size="70.48234023619443" fill="rgba(255,255,255,0.07159478792222218)">€</text><text x="975.5214766133577" y="161.51047749444842" font-family="sans-serif" font-size="64.59093016106635" fill="rgba(255,255,255,0.10942357229068875)">₹</text><text x="272.2682900726795" y="200.47713215462863" font-family="sans-serif" font-size="88.68455632124096" fill="rgba(255,255,255,0.05964549627387897)">€</text><text x="245.46346757560968" y="127.20457063987851" font-family="sans-serif" font-size="56.90192546695471" fill="rgba(255,255,255,0.09538557776482776)">$</text><circle cx="1041.7270434089005" cy="264.6118249371648" r="56.171122402884066" fill="none" stroke="rgba(255,255,255,0.1)" stroke-width="2"/><line x1="1041.7270434089005" y1="264.6118249371648" x2="985.8357005935122" y2="259.01246869804817" stroke="rgba(255,255,255,0.1)" stroke-width="2"/><line x1="1041.7270434089005" y1="264.6118249371648" x2="993.6148083519478" y2="235.6220365656656" stroke="rgba(255,255,255,0.1)" stroke-width="2"/><line x1="1041.7270434089005" y1="264.6118249371648" x2="993.7311152897067" y2="293.7937692859735" stroke="rgba(255,255,255,0.1)" stroke-width="2"/>
  <circle cx="1136.3190804608166" cy="55.33887886907905" r="1.855925080832094" fill="rgba(255,255,255,0.07102550194365903)"/><circle cx="160.17238441854715" cy="524.6408276888542" r="2.232107781805098" fill="rgba(255,255,255,0.040038058971986173)"/><circle cx="832.7209099195898" cy="285.6538474629633" r="1.524948795326054" fill="rgba(255,255,255,0.05798724081367254)"/><circle cx="287.74674385786057" cy="543.524671420455" r="1.4702945407480001" fill="rgba(255,255,255,0.06632956215878949)"/><circle cx="62.24860455840826" cy="212.14446323225275" r="1.5897586927749217" fill="rgba(255,255,255,0.035182690068613735)"/><circle cx="705.7537444867194" cy="399.0691221412271" r="2.031700241845101" fill="rgba(255,255,255,0.03748198659857735)"/><circle cx="166.1137062124908" cy="80.79175196355209" r="2.8580871345475316" fill="rgba(255,255,255,0.05388131598709151)"/><circle cx="878.4470968879759" cy="175.7372569735162" r="2.815958202816546" fill="rgba(255,255,255,0.031149861002340913)"/><circle cx="1147.3081019707024" cy="222.29762714356184" r="2.0022456501610577" fill="rgba(255,255,255,0.07783388571813703)"/><circle cx="1117.582227755338" cy="497.3078693426214" r="1.2663107514381409" fill="rgba(255,255,255,0.07230091952485965)"/><circle cx="809.8283124156296" cy="35.382902801502496" r="1.3733388385735452" fill="rgba(255,255,255,0.06453249867307023)"/><circle cx="1136.1147170886397" cy="605.1161176082678" r="2.386443172581494" fill="rgba(255,255,255,0.04862452656496316)"/><circle cx="273.93384017050266" cy="517.533418815583" r="1.6365982526913285" fill="rgba(255,255,255,0.07271627137204632)"/><circle cx="888.4563675150275" cy="601.8349143024534" r="1.3078938703984022" fill="rgba(255,255,255,0.061467971368692816)"/><circle cx="191.98500020429492" cy="45.694715122226626" r="1.616998522542417" fill="rgba(255,255,255,0.07714183838805183)"/><circle cx="780.152606125921" cy="50.70165793178603" r="1.1740376809611917" fill="rgba(255,255,255,0.054042625562287866)"/><circle cx="110.5584698729217" cy="565.8992992714047" r="2.544301233254373" fill="rgba(255,255,255,0.031203919027466324)"/><circle cx="874.5486848987639" cy="292.6809372520074" r="1.0001653349027038" fill="rgba(255,255,255,0.07754886419977994)"/><circle cx="179.44542914628983" cy="584.8362413328141" r="2.3240002430975437" fill="rgba(255,255,255,0.06906687156995758)"/><circle cx="20.441007893532515" cy="595.3099257219583" r="2.325255149975419" fill="rgba(255,255,255,0.0755741735524498)"/>
  <text x="600" y="335" font-family="system-ui, -apple-system, 'Segoe UI', sans-serif" font-size="68" font-weight="700" fill="rgba(0,0,0,0.15)" text-anchor="middle" letter-spacing="1">CAT</text>
  <text x="600" y="332" font-family="system-ui, -apple-system, 'Segoe UI', sans-serif" font-size="68" font-weight="700" fill="white" text-anchor="middle" letter-spacing="1">CAT</text>
  <g transform="translate(1140, 575)">
    <rect x="0" y="0" width="40" height="40" rx="8" fill="rgba(255,255,255,0.15)"/>
    <text x="20" y="29" font-family="sans-serif" font-weight="bold" font-size="24" fill="rgba(255,255,255,0.6)" text-anchor="middle">K</text>
  </g>
</svg>